<svg xmlns="http://www.w3.org/2000/svg"><symbol id="ac9m3n02-p-001" viewBox="0 0 640 300"><text x="320" y="55" font-family="Arial,sans-serif" font-size="23" text-anchor="middle" fill="#172d46">One whole</text><rect x="60.0" y="95" width="260.0" height="90" fill="#247dba" stroke="#172d46" stroke-width="2"/><rect x="320.0" y="95" width="260.0" height="90" fill="#fff" stroke="#172d46" stroke-width="2"/></symbol><symbol id="ac9m3n02-p-002" viewBox="0 0 640 300"><text x="320" y="55" font-family="Arial,sans-serif" font-size="23" text-anchor="middle" fill="#172d46">One whole</text><rect x="60.0" y="95" width="130.0" height="90" fill="#247dba" stroke="#172d46" stroke-width="2"/><rect x="190.0" y="95" width="130.0" height="90" fill="#247dba" stroke="#172d46" stroke-width="2"/><rect x="320.0" y="95" width="130.0" height="90" fill="#247dba" stroke="#172d46" stroke-width="2"/><rect x="450.0" y="95" width="130.0" height="90" fill="#fff" stroke="#172d46" stroke-width="2"/></symbol><symbol id="ac9m3n02-p-003" viewBox="0 0 640 300"><path d="M60 150H580" stroke="#172d46" stroke-width="3"/><path d="M60.0 140v20" stroke="#172d46" stroke-width="2"/><path d="M190.0 140v20" stroke="#172d46" stroke-width="2"/><path d="M320.0 140v20" stroke="#172d46" stroke-width="2"/><path d="M450.0 140v20" stroke="#172d46" stroke-width="2"/><path d="M580.0 140v20" stroke="#172d46" stroke-width="2"/><text x="60" y="200" font-family="Arial,sans-serif" font-size="23" text-anchor="middle" fill="#172d46">0</text><text x="580" y="200" font-family="Arial,sans-serif" font-size="23" text-anchor="middle" fill="#172d46">1</text><circle cx="450.0" cy="150" r="9" fill="#247dba"/><text x="450.0" y="120" font-family="Arial,sans-serif" font-size="23" text-anchor="middle" fill="#172d46">P</text></symbol><symbol id="ac9m3n02-p-006" viewBox="0 0 640 300"><text x="320" y="55" font-family="Arial,sans-serif" font-size="23" text-anchor="middle" fill="#172d46">One whole</text><rect x="60.0" y="95" width="260.0" height="90" fill="#247dba" stroke="#172d46" stroke-width="2"/><rect x="320.0" y="95" width="260.0" height="90" fill="#fff" stroke="#172d46" stroke-width="2"/></symbol><symbol id="ac9m3n02-p-010" viewBox="0 0 640 300"><text x="320" y="55" font-family="Arial,sans-serif" font-size="23" text-anchor="middle" fill="#172d46">One whole</text><rect x="60.0" y="95" width="173.33333333333334" height="90" fill="#247dba" stroke="#172d46" stroke-width="2"/><rect x="233.33333333333334" y="95" width="173.33333333333334" height="90" fill="#e3a62c" stroke="#172d46" stroke-width="2"/><rect x="406.6666666666667" y="95" width="173.33333333333334" height="90" fill="#fff" stroke="#172d46" stroke-width="2"/></symbol><symbol id="ac9m3n02-p-017" viewBox="0 0 640 300"><text x="320" y="55" font-family="Arial,sans-serif" font-size="23" text-anchor="middle" fill="#172d46">One whole</text><rect x="60.0" y="95" width="173.33333333333334" height="90" fill="#247dba" stroke="#172d46" stroke-width="2"/><rect x="233.33333333333334" y="95" width="173.33333333333334" height="90" fill="#fff" stroke="#172d46" stroke-width="2"/><rect x="406.6666666666667" y="95" width="173.33333333333334" height="90" fill="#fff" stroke="#172d46" stroke-width="2"/></symbol><symbol id="ac9m3n02-p-018" viewBox="0 0 640 300"><text x="320" y="55" font-family="Arial,sans-serif" font-size="23" text-anchor="middle" fill="#172d46">One whole</text><rect x="60.0" y="95" width="173.33333333333334" height="90" fill="#247dba" stroke="#172d46" stroke-width="2"/><rect x="233.33333333333334" y="95" width="173.33333333333334" height="90" fill="#247dba" stroke="#172d46" stroke-width="2"/><rect x="406.6666666666667" y="95" width="173.33333333333334" height="90" fill="#fff" stroke="#172d46" stroke-width="2"/></symbol><symbol id="ac9m3n02-p-019" viewBox="0 0 640 300"><path d="M60 150H580" stroke="#172d46" stroke-width="3"/><path d="M60.0 140v20" stroke="#172d46" stroke-width="2"/><path d="M164.0 140v20" stroke="#172d46" stroke-width="2"/><path d="M268.0 140v20" stroke="#172d46" stroke-width="2"/><path d="M372.0 140v20" stroke="#172d46" stroke-width="2"/><path d="M476.0 140v20" stroke="#172d46" stroke-width="2"/><path d="M580.0 140v20" stroke="#172d46" stroke-width="2"/><text x="60" y="200" font-family="Arial,sans-serif" font-size="23" text-anchor="middle" fill="#172d46">0</text><text x="580" y="200" font-family="Arial,sans-serif" font-size="23" text-anchor="middle" fill="#172d46">1</text><circle cx="268.0" cy="150" r="9" fill="#247dba"/><text x="268.0" y="120" font-family="Arial,sans-serif" font-size="23" text-anchor="middle" fill="#172d46">P</text></symbol><symbol id="ac9m3n02-p-022" viewBox="0 0 640 300"><text x="320" y="55" font-family="Arial,sans-serif" font-size="23" text-anchor="middle" fill="#172d46">One whole</text><rect x="60.0" y="95" width="173.33333333333334" height="90" fill="#247dba" stroke="#172d46" stroke-width="2"/><rect x="233.33333333333334" y="95" width="173.33333333333334" height="90" fill="#247dba" stroke="#172d46" stroke-width="2"/><rect x="406.6666666666667" y="95" width="173.33333333333334" height="90" fill="#fff" stroke="#172d46" stroke-width="2"/></symbol><symbol id="ac9m3n02-p-026" viewBox="0 0 640 300"><text x="320" y="55" font-family="Arial,sans-serif" font-size="23" text-anchor="middle" fill="#172d46">One whole</text><rect x="60.0" y="95" width="104.0" height="90" fill="#247dba" stroke="#172d46" stroke-width="2"/><rect x="164.0" y="95" width="104.0" height="90" fill="#247dba" stroke="#172d46" stroke-width="2"/><rect x="268.0" y="95" width="104.0" height="90" fill="#e3a62c" stroke="#172d46" stroke-width="2"/><rect x="372.0" y="95" width="104.0" height="90" fill="#fff" stroke="#172d46" stroke-width="2"/><rect x="476.0" y="95" width="104.0" height="90" fill="#fff" stroke="#172d46" stroke-width="2"/></symbol><symbol id="ac9m3n02-p-033" viewBox="0 0 640 300"><text x="320" y="55" font-family="Arial,sans-serif" font-size="23" text-anchor="middle" fill="#172d46">One whole</text><rect x="60.0" y="95" width="104.0" height="90" fill="#247dba" stroke="#172d46" stroke-width="2"/><rect x="164.0" y="95" width="104.0" height="90" fill="#fff" stroke="#172d46" stroke-width="2"/><rect x="268.0" y="95" width="104.0" height="90" fill="#fff" stroke="#172d46" stroke-width="2"/><rect x="372.0" y="95" width="104.0" height="90" fill="#fff" stroke="#172d46" stroke-width="2"/><rect x="476.0" y="95" width="104.0" height="90" fill="#fff" stroke="#172d46" stroke-width="2"/></symbol><symbol id="ac9m3n02-p-034" viewBox="0 0 640 300"><text x="320" y="55" font-family="Arial,sans-serif" font-size="23" text-anchor="middle" fill="#172d46">One whole</text><rect x="60.0" y="95" width="104.0" height="90" fill="#247dba" stroke="#172d46" stroke-width="2"/><rect x="164.0" y="95" width="104.0" height="90" fill="#247dba" stroke="#172d46" stroke-width="2"/><rect x="268.0" y="95" width="104.0" height="90" fill="#247dba" stroke="#172d46" stroke-width="2"/><rect x="372.0" y="95" width="104.0" height="90" fill="#fff" stroke="#172d46" stroke-width="2"/><rect x="476.0" y="95" width="104.0" height="90" fill="#fff" stroke="#172d46" stroke-width="2"/></symbol><symbol id="ac9m3n02-p-035" viewBox="0 0 640 300"><path d="M60 150H580" stroke="#172d46" stroke-width="3"/><path d="M60.0 140v20" stroke="#172d46" stroke-width="2"/><path d="M112.0 140v20" stroke="#172d46" stroke-width="2"/><path d="M164.0 140v20" stroke="#172d46" stroke-width="2"/><path d="M216.0 140v20" stroke="#172d46" stroke-width="2"/><path d="M268.0 140v20" stroke="#172d46" stroke-width="2"/><path d="M320.0 140v20" stroke="#172d46" stroke-width="2"/><path d="M372.0 140v20" stroke="#172d46" stroke-width="2"/><path d="M424.0 140v20" stroke="#172d46" stroke-width="2"/><path d="M476.0 140v20" stroke="#172d46" stroke-width="2"/><path d="M528.0 140v20" stroke="#172d46" stroke-width="2"/><path d="M580.0 140v20" stroke="#172d46" stroke-width="2"/><text x="60" y="200" font-family="Arial,sans-serif" font-size="23" text-anchor="middle" fill="#172d46">0</text><text x="580" y="200" font-family="Arial,sans-serif" font-size="23" text-anchor="middle" fill="#172d46">1</text><circle cx="372.0" cy="150" r="9" fill="#247dba"/><text x="372.0" y="120" font-family="Arial,sans-serif" font-size="23" text-anchor="middle" fill="#172d46">P</text></symbol><symbol id="ac9m3n02-p-038" viewBox="0 0 640 300"><text x="320" y="55" font-family="Arial,sans-serif" font-size="23" text-anchor="middle" fill="#172d46">One whole</text><rect x="60.0" y="95" width="104.0" height="90" fill="#247dba" stroke="#172d46" stroke-width="2"/><rect x="164.0" y="95" width="104.0" height="90" fill="#247dba" stroke="#172d46" stroke-width="2"/><rect x="268.0" y="95" width="104.0" height="90" fill="#247dba" stroke="#172d46" stroke-width="2"/><rect x="372.0" y="95" width="104.0" height="90" fill="#fff" stroke="#172d46" stroke-width="2"/><rect x="476.0" y="95" width="104.0" height="90" fill="#fff" stroke="#172d46" stroke-width="2"/></symbol><symbol id="ac9m3n02-p-042" viewBox="0 0 640 300"><text x="320" y="55" font-family="Arial,sans-serif" font-size="23" text-anchor="middle" fill="#172d46">One whole</text><rect x="60.0" y="95" width="52.0" height="90" fill="#247dba" stroke="#172d46" stroke-width="2"/><rect x="112.0" y="95" width="52.0" height="90" fill="#247dba" stroke="#172d46" stroke-width="2"/><rect x="164.0" y="95" width="52.0" height="90" fill="#247dba" stroke="#172d46" stroke-width="2"/><rect x="216.0" y="95" width="52.0" height="90" fill="#e3a62c" stroke="#172d46" stroke-width="2"/><rect x="268.0" y="95" width="52.0" height="90" fill="#fff" stroke="#172d46" stroke-width="2"/><rect x="320.0" y="95" width="52.0" height="90" fill="#fff" stroke="#172d46" stroke-width="2"/><rect x="372.0" y="95" width="52.0" height="90" fill="#fff" stroke="#172d46" stroke-width="2"/><rect x="424.0" y="95" width="52.0" height="90" fill="#fff" stroke="#172d46" stroke-width="2"/><rect x="476.0" y="95" width="52.0" height="90" fill="#fff" stroke="#172d46" stroke-width="2"/><rect x="528.0" y="95" width="52.0" height="90" fill="#fff" stroke="#172d46" stroke-width="2"/></symbol><symbol id="ac9m3n02-t-001" viewBox="0 0 640 300"><text x="320" y="55" font-family="Arial,sans-serif" font-size="23" text-anchor="middle" fill="#172d46">One whole</text><rect x="60.0" y="95" width="52.0" height="90" fill="#247dba" stroke="#172d46" stroke-width="2"/><rect x="112.0" y="95" width="52.0" height="90" fill="#fff" stroke="#172d46" stroke-width="2"/><rect x="164.0" y="95" width="52.0" height="90" fill="#fff" stroke="#172d46" stroke-width="2"/><rect x="216.0" y="95" width="52.0" height="90" fill="#fff" stroke="#172d46" stroke-width="2"/><rect x="268.0" y="95" width="52.0" height="90" fill="#fff" stroke="#172d46" stroke-width="2"/><rect x="320.0" y="95" width="52.0" height="90" fill="#fff" stroke="#172d46" stroke-width="2"/><rect x="372.0" y="95" width="52.0" height="90" fill="#fff" stroke="#172d46" stroke-width="2"/><rect x="424.0" y="95" width="52.0" height="90" fill="#fff" stroke="#172d46" stroke-width="2"/><rect x="476.0" y="95" width="52.0" height="90" fill="#fff" stroke="#172d46" stroke-width="2"/><rect x="528.0" y="95" width="52.0" height="90" fill="#fff" stroke="#172d46" stroke-width="2"/></symbol><symbol id="ac9m3n02-t-002" viewBox="0 0 640 300"><text x="320" y="55" font-family="Arial,sans-serif" font-size="23" text-anchor="middle" fill="#172d46">One whole</text><rect x="60.0" y="95" width="52.0" height="90" fill="#247dba" stroke="#172d46" stroke-width="2"/><rect x="112.0" y="95" width="52.0" height="90" fill="#247dba" stroke="#172d46" stroke-width="2"/><rect x="164.0" y="95" width="52.0" height="90" fill="#247dba" stroke="#172d46" stroke-width="2"/><rect x="216.0" y="95" width="52.0" height="90" fill="#247dba" stroke="#172d46" stroke-width="2"/><rect x="268.0" y="95" width="52.0" height="90" fill="#247dba" stroke="#172d46" stroke-width="2"/><rect x="320.0" y="95" width="52.0" height="90" fill="#247dba" stroke="#172d46" stroke-width="2"/><rect x="372.0" y="95" width="52.0" height="90" fill="#247dba" stroke="#172d46" stroke-width="2"/><rect x="424.0" y="95" width="52.0" height="90" fill="#fff" stroke="#172d46" stroke-width="2"/><rect x="476.0" y="95" width="52.0" height="90" fill="#fff" stroke="#172d46" stroke-width="2"/><rect x="528.0" y="95" width="52.0" height="90" fill="#fff" stroke="#172d46" stroke-width="2"/></symbol><symbol id="ac9m3n02-t-003" viewBox="0 0 640 300"><path d="M60 150H580" stroke="#172d46" stroke-width="3"/><path d="M60.0 140v20" stroke="#172d46" stroke-width="2"/><path d="M233.33333333333334 140v20" stroke="#172d46" stroke-width="2"/><path d="M406.6666666666667 140v20" stroke="#172d46" stroke-width="2"/><path d="M580.0 140v20" stroke="#172d46" stroke-width="2"/><text x="60" y="200" font-family="Arial,sans-serif" font-size="23" text-anchor="middle" fill="#172d46">0</text><text x="580" y="200" font-family="Arial,sans-serif" font-size="23" text-anchor="middle" fill="#172d46">1</text><circle cx="406.6666666666667" cy="150" r="9" fill="#247dba"/><text x="406.6666666666667" y="120" font-family="Arial,sans-serif" font-size="23" text-anchor="middle" fill="#172d46">P</text></symbol><symbol id="ac9m3n02-t-006" viewBox="0 0 640 300"><text x="320" y="55" font-family="Arial,sans-serif" font-size="23" text-anchor="middle" fill="#172d46">One whole</text><rect x="60.0" y="95" width="52.0" height="90" fill="#247dba" stroke="#172d46" stroke-width="2"/><rect x="112.0" y="95" width="52.0" height="90" fill="#247dba" stroke="#172d46" stroke-width="2"/><rect x="164.0" y="95" width="52.0" height="90" fill="#247dba" stroke="#172d46" stroke-width="2"/><rect x="216.0" y="95" width="52.0" height="90" fill="#247dba" stroke="#172d46" stroke-width="2"/><rect x="268.0" y="95" width="52.0" height="90" fill="#247dba" stroke="#172d46" stroke-width="2"/><rect x="320.0" y="95" width="52.0" height="90" fill="#247dba" stroke="#172d46" stroke-width="2"/><rect x="372.0" y="95" width="52.0" height="90" fill="#247dba" stroke="#172d46" stroke-width="2"/><rect x="424.0" y="95" width="52.0" height="90" fill="#fff" stroke="#172d46" stroke-width="2"/><rect x="476.0" y="95" width="52.0" height="90" fill="#fff" stroke="#172d46" stroke-width="2"/><rect x="528.0" y="95" width="52.0" height="90" fill="#fff" stroke="#172d46" stroke-width="2"/></symbol><symbol id="ac9m3n02-t-010" viewBox="0 0 640 300"><text x="320" y="55" font-family="Arial,sans-serif" font-size="23" text-anchor="middle" fill="#172d46">One whole</text><rect x="60.0" y="95" width="52.0" height="90" fill="#247dba" stroke="#172d46" stroke-width="2"/><rect x="112.0" y="95" width="52.0" height="90" fill="#247dba" stroke="#172d46" stroke-width="2"/><rect x="164.0" y="95" width="52.0" height="90" fill="#247dba" stroke="#172d46" stroke-width="2"/><rect x="216.0" y="95" width="52.0" height="90" fill="#247dba" stroke="#172d46" stroke-width="2"/><rect x="268.0" y="95" width="52.0" height="90" fill="#e3a62c" stroke="#172d46" stroke-width="2"/><rect x="320.0" y="95" width="52.0" height="90" fill="#fff" stroke="#172d46" stroke-width="2"/><rect x="372.0" y="95" width="52.0" height="90" fill="#fff" stroke="#172d46" stroke-width="2"/><rect x="424.0" y="95" width="52.0" height="90" fill="#fff" stroke="#172d46" stroke-width="2"/><rect x="476.0" y="95" width="52.0" height="90" fill="#fff" stroke="#172d46" stroke-width="2"/><rect x="528.0" y="95" width="52.0" height="90" fill="#fff" stroke="#172d46" stroke-width="2"/></symbol></svg>
