<svg xmlns="http://www.w3.org/2000/svg" viewBox="0 0 1200 675" role="img" aria-labelledby="t d"><title id="t">Connect a growing model to a number sequence</title><desc id="d">Stages contain 3, 5, 7 and 9 blocks, increasing by 2.</desc><style>.t{font:700 46px Arial}.s{font:700 29px Arial}.p{font:500 24px Arial}.f{font:700 18px Arial}.w{font:700 31px Arial;letter-spacing:4px}</style><rect width="1200" height="675" fill="#f8fafc"/><rect width="1200" height="82" fill="#173a72"/><text x="52" y="54" fill="#fff" class="s">SkillrHub • Year 2 Maths</text><text x="1148" y="54" text-anchor="end" fill="#fff" class="p">3 / 7</text><text x="60" y="150" fill="#173a72" class="t">Connect a growing model to a number sequence</text><text x="60" y="202" fill="#475569" class="p">Each new stage adds 2 blocks.</text><g fill="#dbeafe" stroke="#24324a" stroke-width="3"><rect x="120" y="420" width="42" height="42"/><rect x="168" y="420" width="42" height="42"/><rect x="216" y="420" width="42" height="42"/><rect x="370" y="372" width="42" height="42"/><rect x="418" y="372" width="42" height="42"/><rect x="370" y="420" width="42" height="42"/><rect x="418" y="420" width="42" height="42"/><rect x="466" y="420" width="42" height="42"/><rect x="620" y="324" width="42" height="42"/><rect x="668" y="324" width="42" height="42"/><rect x="620" y="372" width="42" height="42"/><rect x="668" y="372" width="42" height="42"/><rect x="620" y="420" width="42" height="42"/><rect x="668" y="420" width="42" height="42"/><rect x="716" y="420" width="42" height="42"/><rect x="860" y="276" width="42" height="42"/><rect x="908" y="276" width="42" height="42"/><rect x="860" y="324" width="42" height="42"/><rect x="908" y="324" width="42" height="42"/><rect x="860" y="372" width="42" height="42"/><rect x="908" y="372" width="42" height="42"/><rect x="860" y="420" width="42" height="42"/><rect x="908" y="420" width="42" height="42"/><rect x="956" y="420" width="42" height="42"/></g><text x="190" y="520" text-anchor="middle" class="s">3</text><text x="440" y="520" text-anchor="middle" class="s">5</text><text x="690" y="520" text-anchor="middle" class="s">7</text><text x="930" y="520" text-anchor="middle" class="s">9</text><text x="600" y="580" text-anchor="middle" fill="#173a72" class="s">3, 5, 7, 9 → add 2</text><text x="600" y="395" text-anchor="middle" fill="#173a72" opacity=".055" class="w">SKILLRHUB • SKILLRHUB</text><rect y="620" width="1200" height="55" fill="#173a72"/><text x="52" y="655" fill="#fff" class="f">AC9M2A01 • SkillrHub • skillrhub.com</text></svg>