<svg xmlns="http://www.w3.org/2000/svg" viewBox="0 0 640 300" role="img" aria-label="Under equal water drops for five minutes, Sample A stays dry underneath; Sample B lets water through."><title>Under equal water drops for five minutes, Sample A stays dry underneath; Sample B lets water through.</title><g id="model"><rect width="640" height="300" fill="#f4f8ff"/><text x="320" y="30" text-anchor="middle" font-family="Arial,sans-serif" font-size="23" fill="#173968">Equal water drops; same five-minute test</text><text x="165" y="70" text-anchor="middle" font-family="Arial,sans-serif" font-size="21" fill="#173968">Sample A</text><rect x="65" y="132" width="210" height="13" fill="#759dbd"/><path d="M65 210V230H275V210" fill="none" stroke="#173968" stroke-width="3"/><path d="M110 90q-13 18 0 18q13 0 0-18" fill="#287fc1"/><path d="M170 90q-13 18 0 18q13 0 0-18" fill="#287fc1"/><path d="M230 90q-13 18 0 18q13 0 0-18" fill="#287fc1"/><text x="170" y="263" text-anchor="middle" font-family="Arial,sans-serif" font-size="20" fill="#173968">Dry underneath</text><text x="455" y="70" text-anchor="middle" font-family="Arial,sans-serif" font-size="21" fill="#173968">Sample B</text><rect x="355" y="132" width="210" height="13" fill="#759dbd"/><path d="M355 210V230H565V210" fill="none" stroke="#173968" stroke-width="3"/><path d="M400 90q-13 18 0 18q13 0 0-18" fill="#287fc1"/><path d="M460 90q-13 18 0 18q13 0 0-18" fill="#287fc1"/><path d="M520 90q-13 18 0 18q13 0 0-18" fill="#287fc1"/><path d="M373 221Q461 196 547 221" fill="#92cef5"/><text x="460" y="263" text-anchor="middle" font-family="Arial,sans-serif" font-size="20" fill="#173968">Wet underneath</text></g></svg>